<?xml version="1.0" standalone="no"?>
<!DOCTYPE svg PUBLIC "-//W3C//DTD SVG 20010904//EN"
 "http://www.w3.org/TR/2001/REC-SVG-20010904/DTD/svg10.dtd">
<svg version="1.0" xmlns="http://www.w3.org/2000/svg"
 width="565.000000pt" height="565.000000pt" viewBox="0 0 565.000000 565.000000"
 preserveAspectRatio="xMidYMid meet">

<g transform="translate(0.000000,565.000000) scale(0.100000,-0.100000)"
fill="#000000" stroke="none">
<path d="M4285 5265 c-16 -2 -147 -11 -290 -20 -143 -9 -366 -22 -495 -30
-129 -8 -491 -31 -805 -50 -946 -57 -969 -60 -979 -93 -8 -27 -26 -134 -26
-153 0 -10 11 -19 25 -23 13 -3 31 -20 40 -36 22 -42 18 -51 -5 -12 -28 45
-77 47 -122 4 -35 -33 -37 -17 -2 19 l25 26 -23 26 c-16 18 -38 28 -68 32 -41
6 -48 4 -74 -24 l-30 -31 56 0 c62 0 83 -15 76 -55 -3 -15 -1 -22 5 -18 7 4 8
-1 3 -13 -19 -45 -28 -92 -66 -314 -56 -329 -59 -341 -87 -379 -43 -57 -67
-61 -321 -61 l-229 0 -11 -25 c-7 -14 -12 -28 -12 -31 0 -3 111 -4 247 -2 233
3 251 4 289 25 50 27 98 80 113 125 10 30 63 324 78 428 7 51 18 62 54 55 17
-4 34 1 52 16 31 24 67 88 67 119 0 20 3 20 560 20 l560 0 0 -416 0 -415 -30
-28 c-24 -21 -41 -59 -80 -176 -28 -82 -50 -151 -50 -153 0 -1 27 -1 60 0 53
3 61 6 69 28 24 66 25 66 29 18 5 -81 22 -53 22 38 0 49 7 113 17 150 16 61
16 66 0 93 -15 26 -17 70 -17 445 l0 416 368 0 367 0 60 -28 c68 -33 127 -92
159 -161 20 -44 21 -61 24 -497 l3 -451 38 1 c30 0 43 -5 63 -29 l25 -29 204
17 c451 38 989 77 1071 77 83 0 87 -1 107 -27 l20 -28 -4 35 c-26 193 -59 453
-80 625 -14 116 -35 251 -46 300 -59 258 -228 472 -464 585 -130 63 -210 81
-370 85 -77 2 -153 2 -170 0z"/>
<path d="M741 3726 c-28 -34 -53 -334 -31 -385 l12 -31 329 0 329 0 0 215 0
215 -314 0 c-256 0 -316 -3 -325 -14z m414 -52 c10 -11 15 -29 13 -53 l-3 -36
-162 -3 -163 -2 0 49 c0 30 5 51 13 54 6 3 74 6 149 6 113 1 139 -2 153 -15z
m-351 -46 c8 -30 8 -167 0 -207 -16 -79 -58 19 -51 119 6 91 36 143 51 88z
m56 -154 l0 -95 125 3 c102 2 122 1 108 -9 -23 -17 -224 -18 -241 -1 -15 15
-17 198 -2 198 6 0 10 -39 10 -96z"/>
<path d="M5461 3333 l1 -28 9 25 c7 20 8 17 6 -18 l-3 -44 40 7 c22 3 42 8 45
10 11 11 -69 75 -94 75 -3 0 -5 -12 -4 -27z"/>
<path d="M5533 3191 c-24 -4 -45 -9 -47 -12 -3 -3 0 -37 6 -77 9 -61 13 -72
30 -72 11 0 33 14 50 30 26 27 30 36 24 68 -3 20 -6 45 -6 55 0 9 -3 16 -7 16
-5 -1 -27 -5 -50 -8z"/>
<path d="M870 2961 c-37 -10 -31 -35 9 -41 l35 -5 73 -210 c113 -322 120 -340
165 -384 22 -22 65 -53 96 -68 l57 -28 1546 -3 1546 -2 5 -83 c6 -88 25 -148
69 -212 93 -139 263 -214 417 -186 209 39 352 204 356 414 l1 67 46 15 c66 22
130 66 171 116 35 44 58 81 58 95 0 4 -46 4 -101 1 -80 -5 -108 -3 -130 9 -16
8 -29 18 -29 23 0 22 -83 111 -135 146 -94 62 -182 87 -300 87 -76 0 -116 -5
-165 -22 -113 -37 -223 -124 -270 -213 -13 -25 -32 -50 -42 -56 -20 -12 -158
-19 -953 -46 -456 -15 -527 -17 -1303 -35 -408 -10 -436 -10 -470 7 -22 11
-45 33 -57 55 -19 35 -21 37 -90 43 -95 10 -202 38 -266 71 -111 56 -214 199
-280 387 -13 37 -26 67 -29 66 -3 -1 -16 -4 -30 -8z"/>
<path d="M469 2653 c-10 -2 -19 -19 -23 -44 -3 -21 -12 -39 -19 -39 -28 0
-136 -60 -183 -103 -87 -79 -154 -243 -139 -341 32 -209 168 -353 364 -387
174 -31 365 72 444 239 28 58 32 80 35 162 3 69 -1 107 -12 140 -9 25 -18 49
-19 55 -1 5 16 19 38 30 l40 21 -30 30 c-29 29 -32 30 -64 17 -32 -14 -34 -13
-81 31 -26 24 -65 53 -87 65 -40 20 -40 20 -35 69 4 49 4 49 -28 56 -35 7
-175 6 -201 -1z"/>
<path d="M1064 1607 c-3 -8 -4 -41 -2 -73 l3 -59 97 -3 98 -3 2 -272 3 -272
68 -3 c42 -2 74 2 83 9 11 9 14 60 14 275 l0 263 93 3 92 3 0 70 0 70 -273 3
c-224 2 -273 0 -278 -11z m340 -198 c3 -17 6 -130 6 -250 l0 -219 -65 0 -65 0
0 250 0 250 59 0 c58 0 59 -1 65 -31z"/>
<path d="M1675 1608 c-3 -7 -4 -164 -3 -348 l3 -335 80 0 80 0 3 138 3 137 30
0 c17 0 39 -4 49 -10 10 -5 58 -69 106 -140 l88 -131 85 3 c69 2 86 6 89 19 4
20 -116 214 -157 253 l-31 29 49 28 c67 39 95 95 89 184 -3 53 -9 71 -34 102
-56 71 -82 77 -316 81 -168 3 -209 1 -213 -10z m377 -155 c25 -23 23 -68 -4
-87 -16 -12 -47 -16 -115 -16 l-93 0 0 60 0 60 97 0 c76 0 100 -4 115 -17z
m-232 -68 l0 -55 110 0 c104 0 112 1 135 25 16 15 25 36 25 55 l0 30 66 0 67
0 -5 -50 c-7 -67 -44 -114 -107 -137 l-48 -17 46 -47 c25 -25 74 -92 108 -148
l62 -101 -78 0 -78 0 -82 124 c-46 67 -96 130 -111 140 -16 9 -47 16 -69 16
l-41 0 0 -140 0 -140 -65 0 -65 0 0 250 0 250 65 0 65 0 0 -55z"/>
<path d="M2342 1608 c-19 -19 -17 -661 2 -677 9 -7 41 -11 83 -9 l68 3 0 345
0 345 -70 3 c-46 2 -74 -1 -83 -10z m138 -418 l0 -250 -65 0 -65 0 0 173 c0
96 3 208 6 250 l7 77 58 0 59 0 0 -250z"/>
<path d="M2542 1607 c-8 -10 17 -56 108 -202 l119 -188 3 -146 3 -146 80 0 80
0 5 150 5 150 118 184 c65 101 116 190 113 197 -4 10 -28 14 -90 14 l-85 0
-68 -120 c-37 -66 -70 -120 -73 -120 -3 0 -36 53 -75 118 l-70 117 -81 3 c-58
2 -84 -1 -92 -11z m283 -217 c16 -27 32 -50 35 -50 3 0 18 23 35 50 l29 50 63
0 c35 0 63 -3 63 -7 0 -4 -29 -55 -65 -114 l-65 -106 0 -137 0 -136 -65 0 -65
0 0 140 0 140 -48 78 c-27 42 -57 92 -66 110 l-17 32 69 0 68 0 29 -50z"/>
<path d="M3320 1598 c-6 -13 -66 -165 -134 -338 -90 -230 -121 -318 -113 -328
7 -9 33 -12 85 -10 l75 3 26 70 27 70 120 3 120 3 30 -73 29 -73 76 -3 c53 -2
79 1 87 10 8 10 -24 96 -122 338 -72 179 -135 331 -139 338 -6 8 -34 12 -83
12 -68 0 -75 -2 -84 -22z m75 -170 c-2 -7 -20 -59 -39 -114 -20 -56 -36 -104
-36 -108 0 -3 41 -6 91 -6 58 0 88 4 84 10 -3 6 -24 60 -45 120 l-40 110 64 0
c52 0 65 -3 69 -17 3 -10 40 -101 82 -203 42 -102 86 -207 96 -233 l19 -48
-72 3 -72 3 -27 70 -26 70 -134 3 -134 3 -28 -76 -28 -75 -69 0 c-68 0 -69 0
-60 23 5 12 45 112 89 222 112 284 94 255 162 255 42 0 57 -3 54 -12z m49
-140 l26 -68 -64 0 -63 0 30 85 c23 61 33 80 38 68 4 -10 19 -48 33 -85z"/>
<path d="M3674 1607 c-3 -8 -4 -41 -2 -73 l3 -59 97 -3 98 -3 2 -272 3 -272
68 -3 c42 -2 74 2 83 9 11 9 14 60 14 275 l0 263 93 3 92 3 0 70 0 70 -273 3
c-224 2 -273 0 -278 -11z m340 -198 c3 -17 6 -130 6 -250 l0 -219 -65 0 -65 0
0 250 0 250 59 0 c58 0 59 -1 65 -31z"/>
<path d="M4295 1609 c-3 -8 -4 -165 -3 -349 l3 -335 80 0 80 0 3 138 3 137 30
0 c17 0 39 -4 49 -10 10 -5 58 -69 106 -140 l88 -131 85 3 c69 2 86 6 89 19 4
20 -116 214 -157 253 l-31 29 49 28 c67 39 95 95 89 184 -3 53 -9 71 -34 102
-56 70 -82 77 -316 81 -169 4 -209 2 -213 -9z m377 -156 c25 -23 23 -68 -4
-87 -16 -12 -47 -16 -115 -16 l-93 0 0 60 0 60 97 0 c76 0 100 -4 115 -17z
m-232 -68 l0 -55 110 0 c104 0 112 1 135 25 16 15 25 36 25 55 l0 30 66 0 67
0 -5 -50 c-7 -67 -44 -114 -107 -137 l-48 -17 46 -47 c25 -25 74 -92 108 -148
l62 -101 -78 0 -78 0 -82 124 c-46 67 -96 130 -111 140 -16 9 -47 16 -69 16
l-41 0 0 -140 0 -140 -65 0 -65 0 0 250 0 250 65 0 65 0 0 -55z"/>
<path d="M4962 1608 c-19 -19 -17 -661 2 -677 9 -7 41 -11 83 -9 l68 3 0 345
0 345 -70 3 c-46 2 -74 -1 -83 -10z m138 -418 l0 -250 -65 0 -65 0 0 173 c0
96 3 208 6 250 l7 77 58 0 59 0 0 -250z"/>
</g>
</svg>
